<?xml version="1.0" encoding="UTF-8" standalone="no"?>
<!DOCTYPE svg PUBLIC "-//W3C//DTD SVG 1.1//EN"
 "http://www.w3.org/Graphics/SVG/1.1/DTD/svg11.dtd">
<!-- Generated by graphviz version 2.40.1 (20161225.0304)
 -->
<!-- Title: dependencies Pages: 1 -->
<svg width="730pt" height="284pt"
 viewBox="0.00 0.00 730.00 284.00" xmlns="http://www.w3.org/2000/svg" xmlns:xlink="http://www.w3.org/1999/xlink">
<g id="graph0" class="graph" transform="scale(1 1) rotate(0) translate(4 280)">
<title>dependencies</title>
<polygon fill="#ffffff" stroke="transparent" points="-4,4 -4,-280 726,-280 726,4 -4,4"/>
<text text-anchor="start" x="340.0091" y="-42.4" font-family="sans-serif" font-weight="bold" font-size="14.00" fill="#000000">Legend</text>
<polygon fill="#ffffb3" stroke="transparent" points="127,-10 127,-30 147,-30 147,-10 127,-10"/>
<text text-anchor="start" x="150.629" y="-15.4" font-family="sans-serif" font-size="14.00" fill="#000000"> &#160;Declarations</text>
<polygon fill="#8dd3c7" stroke="transparent" points="240,-10 240,-30 260,-30 260,-10 240,-10"/>
<text text-anchor="start" x="263.7251" y="-15.4" font-family="sans-serif" font-size="14.00" fill="#000000"> &#160;Module</text>
<polygon fill="#80b1d3" stroke="transparent" points="326,-10 326,-30 346,-30 346,-10 326,-10"/>
<text text-anchor="start" x="349.7812" y="-15.4" font-family="sans-serif" font-size="14.00" fill="#000000"> &#160;Bootstrap</text>
<polygon fill="#fdb462" stroke="transparent" points="423,-10 423,-30 443,-30 443,-10 423,-10"/>
<text text-anchor="start" x="446.6732" y="-15.4" font-family="sans-serif" font-size="14.00" fill="#000000"> &#160;Providers</text>
<polygon fill="#fb8072" stroke="transparent" points="519,-10 519,-30 539,-30 539,-10 519,-10"/>
<text text-anchor="start" x="542.7258" y="-15.4" font-family="sans-serif" font-size="14.00" fill="#000000"> &#160;Exports</text>
<g id="clust1" class="cluster">
<title>cluster_RoomModule</title>
<polygon fill="none" stroke="#000000" stroke-dasharray="1,5" points="8,-70 8,-268 714,-268 714,-70 8,-70"/>
</g>
<g id="clust2" class="cluster">
<title>cluster_RoomModule_declarations</title>
<polygon fill="none" stroke="#000000" points="452,-78 452,-130 706,-130 706,-78 452,-78"/>
</g>
<g id="clust6" class="cluster">
<title>cluster_RoomModule_exports</title>
<polygon fill="none" stroke="#000000" points="312,-208 312,-260 444,-260 444,-208 312,-208"/>
</g>
<g id="clust8" class="cluster">
<title>cluster_RoomModule_providers</title>
<polygon fill="none" stroke="#000000" points="16,-78 16,-130 444,-130 444,-78 16,-78"/>
</g>
<!-- ChatComponent -->
<g id="node1" class="node">
<title>ChatComponent</title>
<polygon fill="#ffffb3" stroke="#000000" points="697.7744,-122 590.2256,-122 590.2256,-86 697.7744,-86 697.7744,-122"/>
<text text-anchor="middle" x="644" y="-99.8" font-family="Times,serif" font-size="14.00" fill="#000000">ChatComponent</text>
</g>
<!-- RoomModule -->
<g id="node3" class="node">
<title>RoomModule</title>
<polygon fill="#8dd3c7" stroke="#000000" points="424.7773,-187 421.7773,-191 400.7773,-191 397.7773,-187 331.2227,-187 331.2227,-151 424.7773,-151 424.7773,-187"/>
<text text-anchor="middle" x="378" y="-164.8" font-family="Times,serif" font-size="14.00" fill="#000000">RoomModule</text>
</g>
<!-- ChatComponent&#45;&gt;RoomModule -->
<g id="edge1" class="edge">
<title>ChatComponent&#45;&gt;RoomModule</title>
<path fill="none" stroke="#000000" d="M644,-122.2843C644,-143.3211 644,-175 644,-175 644,-175 434.9432,-175 434.9432,-175"/>
<polygon fill="#000000" stroke="#000000" points="434.9432,-171.5001 424.9432,-175 434.9431,-178.5001 434.9432,-171.5001"/>
</g>
<!-- ViewComponent -->
<g id="node2" class="node">
<title>ViewComponent</title>
<polygon fill="#ffffb3" stroke="#000000" points="571.6513,-122 460.3487,-122 460.3487,-86 571.6513,-86 571.6513,-122"/>
<text text-anchor="middle" x="516" y="-99.8" font-family="Times,serif" font-size="14.00" fill="#000000">ViewComponent</text>
</g>
<!-- ViewComponent&#45;&gt;RoomModule -->
<g id="edge2" class="edge">
<title>ViewComponent&#45;&gt;RoomModule</title>
<path fill="none" stroke="#000000" d="M516,-122.0225C516,-139.3734 516,-163 516,-163 516,-163 435.1058,-163 435.1058,-163"/>
<polygon fill="#000000" stroke="#000000" points="435.1058,-159.5001 425.1058,-163 435.1058,-166.5001 435.1058,-159.5001"/>
</g>
<!-- ViewComponent  -->
<g id="node4" class="node">
<title>ViewComponent </title>
<polygon fill="#fb8072" stroke="#000000" points="435.6509,-252 320.3491,-252 320.3491,-216 435.6509,-216 435.6509,-252"/>
<text text-anchor="middle" x="378" y="-229.8" font-family="Times,serif" font-size="14.00" fill="#000000">ViewComponent </text>
</g>
<!-- RoomModule&#45;&gt;ViewComponent  -->
<g id="edge3" class="edge">
<title>RoomModule&#45;&gt;ViewComponent </title>
<path fill="none" stroke="#000000" stroke-dasharray="5,2" d="M378,-187.1061C378,-187.1061 378,-205.991 378,-205.991"/>
<polygon fill="#000000" stroke="#000000" points="374.5001,-205.9909 378,-215.991 381.5001,-205.991 374.5001,-205.9909"/>
</g>
<!-- ChatService -->
<g id="node5" class="node">
<title>ChatService</title>
<ellipse fill="#fdb462" stroke="#000000" cx="378" cy="-104" rx="58.4628" ry="18"/>
<text text-anchor="middle" x="378" y="-99.8" font-family="Times,serif" font-size="14.00" fill="#000000">ChatService</text>
</g>
<!-- ChatService&#45;&gt;RoomModule -->
<g id="edge4" class="edge">
<title>ChatService&#45;&gt;RoomModule</title>
<path fill="none" stroke="#000000" d="M378,-122.1061C378,-122.1061 378,-140.991 378,-140.991"/>
<polygon fill="#000000" stroke="#000000" points="374.5001,-140.9909 378,-150.991 381.5001,-140.991 374.5001,-140.9909"/>
</g>
<!-- RestApiService -->
<g id="node6" class="node">
<title>RestApiService</title>
<ellipse fill="#fdb462" stroke="#000000" cx="230" cy="-104" rx="71.7834" ry="18"/>
<text text-anchor="middle" x="230" y="-99.8" font-family="Times,serif" font-size="14.00" fill="#000000">RestApiService</text>
</g>
<!-- RestApiService&#45;&gt;RoomModule -->
<g id="edge5" class="edge">
<title>RestApiService&#45;&gt;RoomModule</title>
<path fill="none" stroke="#000000" d="M230,-122.0225C230,-139.3734 230,-163 230,-163 230,-163 321.1719,-163 321.1719,-163"/>
<polygon fill="#000000" stroke="#000000" points="321.1719,-166.5001 331.1719,-163 321.1718,-159.5001 321.1719,-166.5001"/>
</g>
<!-- UserService -->
<g id="node7" class="node">
<title>UserService</title>
<ellipse fill="#fdb462" stroke="#000000" cx="82" cy="-104" rx="58.4415" ry="18"/>
<text text-anchor="middle" x="82" y="-99.8" font-family="Times,serif" font-size="14.00" fill="#000000">UserService</text>
</g>
<!-- UserService&#45;&gt;RoomModule -->
<g id="edge6" class="edge">
<title>UserService&#45;&gt;RoomModule</title>
<path fill="none" stroke="#000000" d="M82,-122.2843C82,-143.3211 82,-175 82,-175 82,-175 321.0979,-175 321.0979,-175"/>
<polygon fill="#000000" stroke="#000000" points="321.098,-178.5001 331.0979,-175 321.0979,-171.5001 321.098,-178.5001"/>
</g>
</g>
</svg>
