<?xml version="1.0" encoding="UTF-8" standalone="no"?>
<!DOCTYPE svg PUBLIC "-//W3C//DTD SVG 1.1//EN"
 "http://www.w3.org/Graphics/SVG/1.1/DTD/svg11.dtd">
<!-- Generated by graphviz version 2.40.1 (20161225.0304)
 -->
<!-- Title: dependencies Pages: 1 -->
<svg width="3350pt" height="284pt"
 viewBox="0.00 0.00 3350.00 284.00" xmlns="http://www.w3.org/2000/svg" xmlns:xlink="http://www.w3.org/1999/xlink">
<g id="graph0" class="graph" transform="scale(1 1) rotate(0) translate(4 280)">
<title>dependencies</title>
<polygon fill="#ffffff" stroke="transparent" points="-4,4 -4,-280 3346,-280 3346,4 -4,4"/>
<text text-anchor="start" x="1650.0091" y="-42.4" font-family="sans-serif" font-weight="bold" font-size="14.00" fill="#000000">Legend</text>
<polygon fill="#ffffb3" stroke="transparent" points="1437,-10 1437,-30 1457,-30 1457,-10 1437,-10"/>
<text text-anchor="start" x="1460.629" y="-15.4" font-family="sans-serif" font-size="14.00" fill="#000000"> &#160;Declarations</text>
<polygon fill="#8dd3c7" stroke="transparent" points="1550,-10 1550,-30 1570,-30 1570,-10 1550,-10"/>
<text text-anchor="start" x="1573.7251" y="-15.4" font-family="sans-serif" font-size="14.00" fill="#000000"> &#160;Module</text>
<polygon fill="#80b1d3" stroke="transparent" points="1636,-10 1636,-30 1656,-30 1656,-10 1636,-10"/>
<text text-anchor="start" x="1659.7812" y="-15.4" font-family="sans-serif" font-size="14.00" fill="#000000"> &#160;Bootstrap</text>
<polygon fill="#fdb462" stroke="transparent" points="1733,-10 1733,-30 1753,-30 1753,-10 1733,-10"/>
<text text-anchor="start" x="1756.6732" y="-15.4" font-family="sans-serif" font-size="14.00" fill="#000000"> &#160;Providers</text>
<polygon fill="#fb8072" stroke="transparent" points="1829,-10 1829,-30 1849,-30 1849,-10 1829,-10"/>
<text text-anchor="start" x="1852.7258" y="-15.4" font-family="sans-serif" font-size="14.00" fill="#000000"> &#160;Exports</text>
<g id="clust1" class="cluster">
<title>cluster_AppModule</title>
<polygon fill="none" stroke="#000000" stroke-dasharray="1,5" points="8,-70 8,-268 3334,-268 3334,-70 8,-70"/>
</g>
<g id="clust2" class="cluster">
<title>cluster_AppModule_declarations</title>
<polygon fill="none" stroke="#000000" points="1950,-78 1950,-130 3326,-130 3326,-78 1950,-78"/>
</g>
<g id="clust13" class="cluster">
<title>cluster_AppModule_imports</title>
<polygon fill="none" stroke="#000000" points="1568,-78 1568,-130 1942,-130 1942,-78 1568,-78"/>
</g>
<g id="clust15" class="cluster">
<title>cluster_AppModule_bootstrap</title>
<polygon fill="none" stroke="#000000" points="1819,-208 1819,-260 1943,-260 1943,-208 1819,-208"/>
</g>
<g id="clust16" class="cluster">
<title>cluster_AppModule_providers</title>
<polygon fill="none" stroke="#000000" points="16,-78 16,-130 1560,-130 1560,-78 16,-78"/>
</g>
<!-- AppComponent -->
<g id="node1" class="node">
<title>AppComponent</title>
<polygon fill="#ffffb3" stroke="#000000" points="3317.9399,-122 3212.0601,-122 3212.0601,-86 3317.9399,-86 3317.9399,-122"/>
<text text-anchor="middle" x="3265" y="-99.8" font-family="Times,serif" font-size="14.00" fill="#000000">AppComponent</text>
</g>
<!-- AppModule -->
<g id="node11" class="node">
<title>AppModule</title>
<polygon fill="#8dd3c7" stroke="#000000" points="1922.6571,-187 1919.6571,-191 1898.6571,-191 1895.6571,-187 1839.3429,-187 1839.3429,-151 1922.6571,-151 1922.6571,-187"/>
<text text-anchor="middle" x="1881" y="-164.8" font-family="Times,serif" font-size="14.00" fill="#000000">AppModule</text>
</g>
<!-- AppComponent&#45;&gt;AppModule -->
<g id="edge1" class="edge">
<title>AppComponent&#45;&gt;AppModule</title>
<path fill="none" stroke="#000000" d="M3265,-122.1532C3265,-145.7566 3265,-184 3265,-184 3265,-184 1932.7974,-184 1932.7974,-184"/>
<polygon fill="#000000" stroke="#000000" points="1932.7975,-180.5001 1922.7974,-184 1932.7974,-187.5001 1932.7975,-180.5001"/>
</g>
<!-- CreateRoomComponent -->
<g id="node2" class="node">
<title>CreateRoomComponent</title>
<polygon fill="#ffffb3" stroke="#000000" points="3194.0912,-122 3041.9088,-122 3041.9088,-86 3194.0912,-86 3194.0912,-122"/>
<text text-anchor="middle" x="3118" y="-99.8" font-family="Times,serif" font-size="14.00" fill="#000000">CreateRoomComponent</text>
</g>
<!-- CreateRoomComponent&#45;&gt;AppModule -->
<g id="edge2" class="edge">
<title>CreateRoomComponent&#45;&gt;AppModule</title>
<path fill="none" stroke="#000000" d="M3118,-122.2479C3118,-145.0179 3118,-181 3118,-181 3118,-181 1932.866,-181 1932.866,-181"/>
<polygon fill="#000000" stroke="#000000" points="1932.866,-177.5001 1922.866,-181 1932.866,-184.5001 1932.866,-177.5001"/>
</g>
<!-- CreateSnackBar -->
<g id="node3" class="node">
<title>CreateSnackBar</title>
<polygon fill="#ffffb3" stroke="#000000" points="3023.4552,-122 2916.5448,-122 2916.5448,-86 3023.4552,-86 3023.4552,-122"/>
<text text-anchor="middle" x="2970" y="-99.8" font-family="Times,serif" font-size="14.00" fill="#000000">CreateSnackBar</text>
</g>
<!-- CreateSnackBar&#45;&gt;AppModule -->
<g id="edge3" class="edge">
<title>CreateSnackBar&#45;&gt;AppModule</title>
<path fill="none" stroke="#000000" d="M2970,-122.2921C2970,-144.2057 2970,-178 2970,-178 2970,-178 1932.691,-178 1932.691,-178"/>
<polygon fill="#000000" stroke="#000000" points="1932.691,-174.5001 1922.691,-178 1932.6909,-181.5001 1932.691,-174.5001"/>
</g>
<!-- CreateUserComponent -->
<g id="node4" class="node">
<title>CreateUserComponent</title>
<polygon fill="#ffffb3" stroke="#000000" points="2898.2907,-122 2753.7093,-122 2753.7093,-86 2898.2907,-86 2898.2907,-122"/>
<text text-anchor="middle" x="2826" y="-99.8" font-family="Times,serif" font-size="14.00" fill="#000000">CreateUserComponent</text>
</g>
<!-- CreateUserComponent&#45;&gt;AppModule -->
<g id="edge4" class="edge">
<title>CreateUserComponent&#45;&gt;AppModule</title>
<path fill="none" stroke="#000000" d="M2826,-122.0267C2826,-142.7672 2826,-174 2826,-174 2826,-174 1932.8248,-174 1932.8248,-174"/>
<polygon fill="#000000" stroke="#000000" points="1932.8248,-170.5001 1922.8248,-174 1932.8248,-177.5001 1932.8248,-170.5001"/>
</g>
<!-- DialogComponent -->
<g id="node5" class="node">
<title>DialogComponent</title>
<polygon fill="#ffffb3" stroke="#000000" points="2735.9356,-122 2616.0644,-122 2616.0644,-86 2735.9356,-86 2735.9356,-122"/>
<text text-anchor="middle" x="2676" y="-99.8" font-family="Times,serif" font-size="14.00" fill="#000000">DialogComponent</text>
</g>
<!-- DialogComponent&#45;&gt;AppModule -->
<g id="edge5" class="edge">
<title>DialogComponent&#45;&gt;AppModule</title>
<path fill="none" stroke="#000000" d="M2676,-122.308C2676,-142.1455 2676,-171 2676,-171 2676,-171 1932.9019,-171 1932.9019,-171"/>
<polygon fill="#000000" stroke="#000000" points="1932.902,-167.5001 1922.9019,-171 1932.9019,-174.5001 1932.902,-167.5001"/>
</g>
<!-- DialogRoomForm -->
<g id="node6" class="node">
<title>DialogRoomForm</title>
<polygon fill="#ffffb3" stroke="#000000" points="2598.1639,-122 2479.8361,-122 2479.8361,-86 2598.1639,-86 2598.1639,-122"/>
<text text-anchor="middle" x="2539" y="-99.8" font-family="Times,serif" font-size="14.00" fill="#000000">DialogRoomForm</text>
</g>
<!-- DialogRoomForm&#45;&gt;AppModule -->
<g id="edge6" class="edge">
<title>DialogRoomForm&#45;&gt;AppModule</title>
<path fill="none" stroke="#000000" d="M2539,-122.1686C2539,-141.0898 2539,-168 2539,-168 2539,-168 1932.66,-168 1932.66,-168"/>
<polygon fill="#000000" stroke="#000000" points="1932.6601,-164.5001 1922.66,-168 1932.66,-171.5001 1932.6601,-164.5001"/>
</g>
<!-- GameRoomComponent -->
<g id="node7" class="node">
<title>GameRoomComponent</title>
<polygon fill="#ffffb3" stroke="#000000" points="2461.486,-122 2312.514,-122 2312.514,-86 2461.486,-86 2461.486,-122"/>
<text text-anchor="middle" x="2387" y="-99.8" font-family="Times,serif" font-size="14.00" fill="#000000">GameRoomComponent</text>
</g>
<!-- GameRoomComponent&#45;&gt;AppModule -->
<g id="edge7" class="edge">
<title>GameRoomComponent&#45;&gt;AppModule</title>
<path fill="none" stroke="#000000" d="M2387,-122.302C2387,-140.2699 2387,-165 2387,-165 2387,-165 1932.8386,-165 1932.8386,-165"/>
<polygon fill="#000000" stroke="#000000" points="1932.8386,-161.5001 1922.8386,-165 1932.8386,-168.5001 1932.8386,-161.5001"/>
</g>
<!-- MenuComponent -->
<g id="node8" class="node">
<title>MenuComponent</title>
<polygon fill="#ffffb3" stroke="#000000" points="2294.9916,-122 2181.0084,-122 2181.0084,-86 2294.9916,-86 2294.9916,-122"/>
<text text-anchor="middle" x="2238" y="-99.8" font-family="Times,serif" font-size="14.00" fill="#000000">MenuComponent</text>
</g>
<!-- MenuComponent&#45;&gt;AppModule -->
<g id="edge8" class="edge">
<title>MenuComponent&#45;&gt;AppModule</title>
<path fill="none" stroke="#000000" d="M2238,-122.0352C2238,-138.7344 2238,-161 2238,-161 2238,-161 1933.0022,-161 1933.0022,-161"/>
<polygon fill="#000000" stroke="#000000" points="1933.0023,-157.5001 1923.0022,-161 1933.0022,-164.5001 1933.0023,-157.5001"/>
</g>
<!-- PipePipe -->
<g id="node9" class="node">
<title>PipePipe</title>
<polygon fill="#ffffb3" stroke="#000000" points="2162.776,-122 2097.224,-122 2097.224,-86 2162.776,-86 2162.776,-122"/>
<text text-anchor="middle" x="2130" y="-99.8" font-family="Times,serif" font-size="14.00" fill="#000000">PipePipe</text>
</g>
<!-- PipePipe&#45;&gt;AppModule -->
<g id="edge9" class="edge">
<title>PipePipe&#45;&gt;AppModule</title>
<path fill="none" stroke="#000000" d="M2130,-122.2819C2130,-137.9478 2130,-158 2130,-158 2130,-158 1932.677,-158 1932.677,-158"/>
<polygon fill="#000000" stroke="#000000" points="1932.677,-154.5001 1922.677,-158 1932.677,-161.5001 1932.677,-154.5001"/>
</g>
<!-- RoomsComponent -->
<g id="node10" class="node">
<title>RoomsComponent</title>
<polygon fill="#ffffb3" stroke="#000000" points="2079.5042,-122 1958.4958,-122 1958.4958,-86 2079.5042,-86 2079.5042,-122"/>
<text text-anchor="middle" x="2019" y="-99.8" font-family="Times,serif" font-size="14.00" fill="#000000">RoomsComponent</text>
</g>
<!-- RoomsComponent&#45;&gt;AppModule -->
<g id="edge10" class="edge">
<title>RoomsComponent&#45;&gt;AppModule</title>
<path fill="none" stroke="#000000" d="M2019,-122.1243C2019,-136.7832 2019,-155 2019,-155 2019,-155 1932.779,-155 1932.779,-155"/>
<polygon fill="#000000" stroke="#000000" points="1932.7791,-151.5001 1922.779,-155 1932.779,-158.5001 1932.7791,-151.5001"/>
</g>
<!-- AppComponent  -->
<g id="node15" class="node">
<title>AppComponent </title>
<polygon fill="#80b1d3" stroke="#000000" points="1935.439,-252 1826.561,-252 1826.561,-216 1935.439,-216 1935.439,-252"/>
<text text-anchor="middle" x="1881" y="-229.8" font-family="Times,serif" font-size="14.00" fill="#000000">AppComponent </text>
</g>
<!-- AppModule&#45;&gt;AppComponent  -->
<g id="edge14" class="edge">
<title>AppModule&#45;&gt;AppComponent </title>
<path fill="none" stroke="#000000" stroke-dasharray="1,5" d="M1881,-187.1061C1881,-187.1061 1881,-205.991 1881,-205.991"/>
<polygon fill="#000000" stroke="#000000" points="1877.5001,-205.9909 1881,-215.991 1884.5001,-205.991 1877.5001,-205.9909"/>
</g>
<!-- Ng2Webstorage -->
<g id="node12" class="node">
<title>Ng2Webstorage</title>
<polygon fill="#8dd3c7" stroke="#000000" points="1934.4608,-122 1931.4608,-126 1910.4608,-126 1907.4608,-122 1827.5392,-122 1827.5392,-86 1934.4608,-86 1934.4608,-122"/>
<text text-anchor="middle" x="1881" y="-99.8" font-family="Times,serif" font-size="14.00" fill="#000000">Ng2Webstorage</text>
</g>
<!-- Ng2Webstorage&#45;&gt;AppModule -->
<g id="edge11" class="edge">
<title>Ng2Webstorage&#45;&gt;AppModule</title>
<path fill="none" stroke="#000000" d="M1881,-122.1061C1881,-122.1061 1881,-140.991 1881,-140.991"/>
<polygon fill="#000000" stroke="#000000" points="1877.5001,-140.9909 1881,-150.991 1884.5001,-140.991 1877.5001,-140.9909"/>
</g>
<!-- RoomModule -->
<g id="node13" class="node">
<title>RoomModule</title>
<polygon fill="#8dd3c7" stroke="#000000" points="1809.7773,-122 1806.7773,-126 1785.7773,-126 1782.7773,-122 1716.2227,-122 1716.2227,-86 1809.7773,-86 1809.7773,-122"/>
<text text-anchor="middle" x="1763" y="-99.8" font-family="Times,serif" font-size="14.00" fill="#000000">RoomModule</text>
</g>
<!-- RoomModule&#45;&gt;AppModule -->
<g id="edge12" class="edge">
<title>RoomModule&#45;&gt;AppModule</title>
<path fill="none" stroke="#000000" d="M1763,-122.1243C1763,-136.7832 1763,-155 1763,-155 1763,-155 1829.0654,-155 1829.0654,-155"/>
<polygon fill="#000000" stroke="#000000" points="1829.0654,-158.5001 1839.0654,-155 1829.0653,-151.5001 1829.0654,-158.5001"/>
</g>
<!-- SpotifyApiModule -->
<g id="node14" class="node">
<title>SpotifyApiModule</title>
<polygon fill="#8dd3c7" stroke="#000000" points="1697.7716,-122 1694.7716,-126 1673.7716,-126 1670.7716,-122 1576.2284,-122 1576.2284,-86 1697.7716,-86 1697.7716,-122"/>
<text text-anchor="middle" x="1637" y="-99.8" font-family="Times,serif" font-size="14.00" fill="#000000">SpotifyApiModule</text>
</g>
<!-- SpotifyApiModule&#45;&gt;AppModule -->
<g id="edge13" class="edge">
<title>SpotifyApiModule&#45;&gt;AppModule</title>
<path fill="none" stroke="#000000" d="M1637,-122.2819C1637,-137.9478 1637,-158 1637,-158 1637,-158 1829.3321,-158 1829.3321,-158"/>
<polygon fill="#000000" stroke="#000000" points="1829.3322,-161.5001 1839.3321,-158 1829.3321,-154.5001 1829.3322,-161.5001"/>
</g>
<!-- HttpResponseHandling -->
<g id="node16" class="node">
<title>HttpResponseHandling</title>
<ellipse fill="#fdb462" stroke="#000000" cx="1451" cy="-104" rx="101.3066" ry="18"/>
<text text-anchor="middle" x="1451" y="-99.8" font-family="Times,serif" font-size="14.00" fill="#000000">HttpResponseHandling</text>
</g>
<!-- HttpResponseHandling&#45;&gt;AppModule -->
<g id="edge15" class="edge">
<title>HttpResponseHandling&#45;&gt;AppModule</title>
<path fill="none" stroke="#000000" d="M1451,-122.0352C1451,-138.7344 1451,-161 1451,-161 1451,-161 1828.9869,-161 1828.9869,-161"/>
<polygon fill="#000000" stroke="#000000" points="1828.9869,-164.5001 1838.9869,-161 1828.9868,-157.5001 1828.9869,-164.5001"/>
</g>
<!-- NavigationService -->
<g id="node17" class="node">
<title>NavigationService</title>
<ellipse fill="#fdb462" stroke="#000000" cx="1249" cy="-104" rx="82.8032" ry="18"/>
<text text-anchor="middle" x="1249" y="-99.8" font-family="Times,serif" font-size="14.00" fill="#000000">NavigationService</text>
</g>
<!-- NavigationService&#45;&gt;AppModule -->
<g id="edge16" class="edge">
<title>NavigationService&#45;&gt;AppModule</title>
<path fill="none" stroke="#000000" d="M1249,-122.302C1249,-140.2699 1249,-165 1249,-165 1249,-165 1829.0433,-165 1829.0433,-165"/>
<polygon fill="#000000" stroke="#000000" points="1829.0433,-168.5001 1839.0433,-165 1829.0432,-161.5001 1829.0433,-168.5001"/>
</g>
<!-- ResponseSnackbarService -->
<g id="node18" class="node">
<title>ResponseSnackbarService</title>
<ellipse fill="#fdb462" stroke="#000000" cx="1035" cy="-104" rx="112.8616" ry="18"/>
<text text-anchor="middle" x="1035" y="-99.8" font-family="Times,serif" font-size="14.00" fill="#000000">ResponseSnackbarService</text>
</g>
<!-- ResponseSnackbarService&#45;&gt;AppModule -->
<g id="edge17" class="edge">
<title>ResponseSnackbarService&#45;&gt;AppModule</title>
<path fill="none" stroke="#000000" d="M1035,-122.1686C1035,-141.0898 1035,-168 1035,-168 1035,-168 1829.3353,-168 1829.3353,-168"/>
<polygon fill="#000000" stroke="#000000" points="1829.3353,-171.5001 1839.3353,-168 1829.3353,-164.5001 1829.3353,-171.5001"/>
</g>
<!-- RestApiService -->
<g id="node19" class="node">
<title>RestApiService</title>
<ellipse fill="#fdb462" stroke="#000000" cx="832" cy="-104" rx="71.7834" ry="18"/>
<text text-anchor="middle" x="832" y="-99.8" font-family="Times,serif" font-size="14.00" fill="#000000">RestApiService</text>
</g>
<!-- RestApiService&#45;&gt;AppModule -->
<g id="edge18" class="edge">
<title>RestApiService&#45;&gt;AppModule</title>
<path fill="none" stroke="#000000" d="M832,-122.308C832,-142.1455 832,-171 832,-171 832,-171 1829.2306,-171 1829.2306,-171"/>
<polygon fill="#000000" stroke="#000000" points="1829.2307,-174.5001 1839.2306,-171 1829.2306,-167.5001 1829.2307,-174.5001"/>
</g>
<!-- RoomsServiceService -->
<g id="node20" class="node">
<title>RoomsServiceService</title>
<ellipse fill="#fdb462" stroke="#000000" cx="646" cy="-104" rx="96.1247" ry="18"/>
<text text-anchor="middle" x="646" y="-99.8" font-family="Times,serif" font-size="14.00" fill="#000000">RoomsServiceService</text>
</g>
<!-- RoomsServiceService&#45;&gt;AppModule -->
<g id="edge19" class="edge">
<title>RoomsServiceService&#45;&gt;AppModule</title>
<path fill="none" stroke="#000000" d="M646,-122.0267C646,-142.7672 646,-174 646,-174 646,-174 1829.2017,-174 1829.2017,-174"/>
<polygon fill="#000000" stroke="#000000" points="1829.2017,-177.5001 1839.2017,-174 1829.2016,-170.5001 1829.2017,-177.5001"/>
</g>
<!-- TokenInterceptor -->
<g id="node21" class="node">
<title>TokenInterceptor</title>
<ellipse fill="#fdb462" stroke="#000000" cx="454" cy="-104" rx="78.1308" ry="18"/>
<text text-anchor="middle" x="454" y="-99.8" font-family="Times,serif" font-size="14.00" fill="#000000">TokenInterceptor</text>
</g>
<!-- TokenInterceptor&#45;&gt;AppModule -->
<g id="edge20" class="edge">
<title>TokenInterceptor&#45;&gt;AppModule</title>
<path fill="none" stroke="#000000" d="M454,-122.2921C454,-144.2057 454,-178 454,-178 454,-178 1829.0654,-178 1829.0654,-178"/>
<polygon fill="#000000" stroke="#000000" points="1829.0655,-181.5001 1839.0654,-178 1829.0654,-174.5001 1829.0655,-181.5001"/>
</g>
<!-- UserService -->
<g id="node22" class="node">
<title>UserService</title>
<ellipse fill="#fdb462" stroke="#000000" cx="300" cy="-104" rx="58.4415" ry="18"/>
<text text-anchor="middle" x="300" y="-99.8" font-family="Times,serif" font-size="14.00" fill="#000000">UserService</text>
</g>
<!-- UserService&#45;&gt;AppModule -->
<g id="edge21" class="edge">
<title>UserService&#45;&gt;AppModule</title>
<path fill="none" stroke="#000000" d="M300,-122.2479C300,-145.0179 300,-181 300,-181 300,-181 1829.1193,-181 1829.1193,-181"/>
<polygon fill="#000000" stroke="#000000" points="1829.1193,-184.5001 1839.1193,-181 1829.1193,-177.5001 1829.1193,-184.5001"/>
</g>
<!-- WarningDialogService -->
<g id="node23" class="node">
<title>WarningDialogService</title>
<ellipse fill="#fdb462" stroke="#000000" cx="124" cy="-104" rx="100.1201" ry="18"/>
<text text-anchor="middle" x="124" y="-99.8" font-family="Times,serif" font-size="14.00" fill="#000000">WarningDialogService</text>
</g>
<!-- WarningDialogService&#45;&gt;AppModule -->
<g id="edge22" class="edge">
<title>WarningDialogService&#45;&gt;AppModule</title>
<path fill="none" stroke="#000000" d="M124,-122.1532C124,-145.7566 124,-184 124,-184 124,-184 1829.3013,-184 1829.3013,-184"/>
<polygon fill="#000000" stroke="#000000" points="1829.3013,-187.5001 1839.3013,-184 1829.3012,-180.5001 1829.3013,-187.5001"/>
</g>
</g>
</svg>
