<?xml version="1.0" encoding="UTF-8" standalone="no"?>
<!DOCTYPE svg PUBLIC "-//W3C//DTD SVG 1.1//EN"
 "http://www.w3.org/Graphics/SVG/1.1/DTD/svg11.dtd">
<!-- Generated by graphviz version 2.40.1 (20161225.0304)
 -->
<!-- Title: dependencies Pages: 1 -->
<svg width="504pt" height="211pt"
 viewBox="0.00 0.00 504.00 211.00" xmlns="http://www.w3.org/2000/svg" xmlns:xlink="http://www.w3.org/1999/xlink">
<g id="graph0" class="graph" transform="scale(1 1) rotate(0) translate(4 207)">
<title>dependencies</title>
<polygon fill="#ffffff" stroke="transparent" points="-4,4 -4,-207 500,-207 500,4 -4,4"/>
<text text-anchor="start" x="227.0091" y="-42.4" font-family="sans-serif" font-weight="bold" font-size="14.00" fill="#000000">Legend</text>
<polygon fill="#ffffb3" stroke="transparent" points="14,-10 14,-30 34,-30 34,-10 14,-10"/>
<text text-anchor="start" x="37.629" y="-15.4" font-family="sans-serif" font-size="14.00" fill="#000000"> &#160;Declarations</text>
<polygon fill="#8dd3c7" stroke="transparent" points="127,-10 127,-30 147,-30 147,-10 127,-10"/>
<text text-anchor="start" x="150.7251" y="-15.4" font-family="sans-serif" font-size="14.00" fill="#000000"> &#160;Module</text>
<polygon fill="#80b1d3" stroke="transparent" points="213,-10 213,-30 233,-30 233,-10 213,-10"/>
<text text-anchor="start" x="236.7812" y="-15.4" font-family="sans-serif" font-size="14.00" fill="#000000"> &#160;Bootstrap</text>
<polygon fill="#fdb462" stroke="transparent" points="310,-10 310,-30 330,-30 330,-10 310,-10"/>
<text text-anchor="start" x="333.6732" y="-15.4" font-family="sans-serif" font-size="14.00" fill="#000000"> &#160;Providers</text>
<polygon fill="#fb8072" stroke="transparent" points="406,-10 406,-30 426,-30 426,-10 406,-10"/>
<text text-anchor="start" x="429.7258" y="-15.4" font-family="sans-serif" font-size="14.00" fill="#000000"> &#160;Exports</text>
<g id="clust1" class="cluster">
<title>cluster_SpotifyApiModule</title>
<polygon fill="none" stroke="#000000" stroke-dasharray="1,5" points="40,-70 40,-195 456,-195 456,-70 40,-70"/>
</g>
<g id="clust2" class="cluster">
<title>cluster_SpotifyApiModule_declarations</title>
<polygon fill="none" stroke="#000000" points="244,-78 244,-130 448,-130 448,-78 244,-78"/>
</g>
<g id="clust7" class="cluster">
<title>cluster_SpotifyApiModule_providers</title>
<polygon fill="none" stroke="#000000" points="48,-78 48,-130 236,-130 236,-78 48,-78"/>
</g>
<!-- SpotifyComponentComponent -->
<g id="node1" class="node">
<title>SpotifyComponentComponent</title>
<polygon fill="#ffffb3" stroke="#000000" points="439.8892,-122 252.1108,-122 252.1108,-86 439.8892,-86 439.8892,-122"/>
<text text-anchor="middle" x="346" y="-99.8" font-family="Times,serif" font-size="14.00" fill="#000000">SpotifyComponentComponent</text>
</g>
<!-- SpotifyApiModule -->
<g id="node2" class="node">
<title>SpotifyApiModule</title>
<polygon fill="#8dd3c7" stroke="#000000" points="304.7716,-187 301.7716,-191 280.7716,-191 277.7716,-187 183.2284,-187 183.2284,-151 304.7716,-151 304.7716,-187"/>
<text text-anchor="middle" x="244" y="-164.8" font-family="Times,serif" font-size="14.00" fill="#000000">SpotifyApiModule</text>
</g>
<!-- SpotifyComponentComponent&#45;&gt;SpotifyApiModule -->
<g id="edge1" class="edge">
<title>SpotifyComponentComponent&#45;&gt;SpotifyApiModule</title>
<path fill="none" stroke="#000000" d="M278.4706,-122.1061C278.4706,-122.1061 278.4706,-140.991 278.4706,-140.991"/>
<polygon fill="#000000" stroke="#000000" points="274.9706,-140.9909 278.4706,-150.991 281.9706,-140.991 274.9706,-140.9909"/>
</g>
<!-- SpotifyRestService -->
<g id="node3" class="node">
<title>SpotifyRestService</title>
<ellipse fill="#fdb462" stroke="#000000" cx="142" cy="-104" rx="85.6879" ry="18"/>
<text text-anchor="middle" x="142" y="-99.8" font-family="Times,serif" font-size="14.00" fill="#000000">SpotifyRestService</text>
</g>
<!-- SpotifyRestService&#45;&gt;SpotifyApiModule -->
<g id="edge2" class="edge">
<title>SpotifyRestService&#45;&gt;SpotifyApiModule</title>
<path fill="none" stroke="#000000" d="M205.3541,-116.226C205.3541,-116.226 205.3541,-140.683 205.3541,-140.683"/>
<polygon fill="#000000" stroke="#000000" points="201.8542,-140.683 205.3541,-150.683 208.8542,-140.683 201.8542,-140.683"/>
</g>
</g>
</svg>
